<?xml version="1.0" encoding="utf-8"?>
<!-- Generator: Adobe Illustrator 24.1.0, SVG Export Plug-In . SVG Version: 6.00 Build 0)  -->
<svg version="1.1" id="Capa_1" xmlns="http://www.w3.org/2000/svg" xmlns:xlink="http://www.w3.org/1999/xlink" x="0px" y="0px"
	 viewBox="0 0 338.2 418" style="enable-background:new 0 0 338.2 418;" xml:space="preserve">
<style type="text/css">
	.st0{fill:#D61F2A;}
</style>
<g>
	<g>
		<g>
			<path class="st0" d="M307.9,72.7C276,26.5,225.4,0,169.1,0S62.3,26.5,30.4,72.7c-31.8,46-39.1,104.1-19.7,155.5
				c5.2,14,13.5,27.7,24.5,40.5L158,412.9c2.8,3.3,6.8,5.1,11.1,5.1s8.4-1.9,11.1-5.1L303,268.7c11.1-12.9,19.3-26.5,24.5-40.4
				C347,176.8,339.6,118.6,307.9,72.7z M300.1,218.1c-4,10.7-10.5,21.4-19.3,31.6c0,0,0,0-0.1,0.1L169.1,380.9L57.4,249.7
				c-8.8-10.2-15.3-20.8-19.3-31.7c-16.1-42.5-10-90.6,16.3-128.7c26.4-38.2,68.2-60.1,114.7-60.1c46.5,0,88.3,21.9,114.7,60.1
				C310.1,127.4,316.2,175.5,300.1,218.1z"/>
		</g>
	</g>
	<g>
		<g>
			<path class="st0" d="M169.1,86.7c-45.1,0-81.9,36.7-81.9,81.9s36.7,81.9,81.9,81.9s81.9-36.7,81.9-81.9
				C251,123.4,214.2,86.7,169.1,86.7z M169.1,221.2c-29,0-52.6-23.6-52.6-52.6s23.6-52.6,52.6-52.6s52.6,23.6,52.6,52.6
				S198.1,221.2,169.1,221.2z"/>
		</g>
	</g>
</g>
</svg>
